<svg id="Layer_1" data-name="Layer 1" xmlns="http://www.w3.org/2000/svg" viewBox="0 0 590.63 101.98"><defs><style>.cls-1{fill:#3a2161;}.cls-2{fill:#5f5783;fill-rule:evenodd;}</style></defs><path class="cls-1" d="M14,59.15h3.51c6.37,0,7.39-.83,7.39-6.11h1.85V68.13H24.91c0-5.35-1-6.11-7.39-6.11H14v9.49c0,6.37.83,7.45,6.12,7.45v1.85H0V79c5.29,0,6.05-1.08,6.05-7.45V51.89c0-6.37-.76-7.45-6-7.45V42.59H33.83l.57,9H32.49l-.32-1.27c-.83-3.38-1.53-4.84-7.33-4.84H14Z"/><path class="cls-1" d="M38.48,79c5.28,0,6.05-1.08,6.05-7.45V51.89c0-6.37-.77-7.45-6.05-7.45V42.59h32.8l.51,9H70l-.32-1.27c-.89-3.38-1.53-4.84-7.39-4.84H52.49V59.15H56c6.38,0,7.39-.83,7.39-6.11h1.85V68.13H63.38c0-5.35-1-6.11-7.39-6.11h-3.5v8.47c0,6.37.83,7.46,6.12,7.46h5.73c5.86,0,6.56-1.47,7.39-4.85l.32-1.27H73.9l-.51,9H38.48Z"/><path class="cls-1" d="M88.87,71.51c0,6.37.82,7.45,6.11,7.45v1.85H80V79c5.28,0,6-1.08,6-7.45V51.89c0-6.37-.77-7.45-6-7.45V42.59H92.69L105,70.17,116.9,42.59h12.42v1.85c-5.35,0-6.12,1.08-6.12,7.45V71.51c0,6.37.77,7.45,6.12,7.45v1.85H109.44V79c5.29,0,6.12-1.08,6.12-7.45V53.1L103.07,81.89h-1.4L88.87,53.16Z"/><path class="cls-1" d="M140.53,74.12C139.06,77.56,140,79,145.3,79v1.85H129.89V79c4.39,0,5.86-1.08,7.83-5.6l13.83-31.85h1.34l13.88,31.85c1.79,4.08,2.68,5.6,7.77,5.6v1.85H153.65V79c5.61,0,6.24-1.46,4.78-4.84l-2.68-6.05H143.14Zm8.92-20.57-5,11.65h10.13Z"/><path class="cls-1" d="M175.18,44.44V42.59h20.13v1.85c-5.29,0-6.11,1.08-6.11,7.45v18.6c0,6.37.82,7.46,6.11,7.46h7.33c5.86,0,6.56-1.47,7.39-4.85l.32-1.27h1.84l-.51,9h-36.5V79c5.29,0,6-1.08,6-7.45V51.89C181.23,45.52,180.47,44.44,175.18,44.44Z"/><path class="cls-1" d="M216.14,79c5.29,0,6.05-1.08,6.05-7.45V51.89c0-6.37-.76-7.45-6.05-7.45V42.59H249l.51,9h-1.85l-.32-1.27c-.89-3.38-1.53-4.84-7.39-4.84h-9.74V59.15h3.5c6.37,0,7.39-.83,7.39-6.11h1.85V68.13h-1.85c0-5.35-1-6.11-7.39-6.11h-3.5v8.47c0,6.37.83,7.46,6.11,7.46H242c5.86,0,6.56-1.47,7.39-4.85l.31-1.27h1.85l-.51,9H216.14Z"/><path class="cls-1" d="M364.48,80.81V79c5.29,0,6-1.08,6-7.45V51.89c0-6.37-.76-7.45-6-7.45V42.59h20.13v1.85c-5.28,0-6.11,1.08-6.11,7.45V71.51c0,6.37.83,7.45,6.11,7.45v1.85Z"/><path class="cls-1" d="M424.11,51.89c0-6.37-.83-7.45-6.12-7.45V42.59h15.1v1.85c-5.35,0-6.11,1.08-6.11,7.45v30h-1.6L399,50.42V71.51c0,6.37.83,7.45,6.11,7.45v1.85h-15V79c5.29,0,6.05-1.08,6.05-7.45V51.89c0-6.37-.76-7.45-6.05-7.45V42.59h12.74l21.28,25.35Z"/><path class="cls-1" d="M470.42,50,456.6,81.89h-1.34L441.37,50c-1.78-4.14-2.67-5.6-7.77-5.6V42.59h20.9v1.85c-5.61,0-6.25,1.46-4.78,4.84L458.64,70l9-20.7c1.46-3.44.51-4.84-4.78-4.84V42.59h15.42v1.85C473.86,44.44,472.4,45.52,470.42,50Z"/><path class="cls-1" d="M478.89,79c5.29,0,6.05-1.08,6.05-7.45V51.89c0-6.37-.76-7.45-6.05-7.45V42.59H511.7l.51,9h-1.85L510,50.3c-.89-3.38-1.52-4.84-7.39-4.84h-9.74V59.15h3.5c6.37,0,7.39-.83,7.39-6.11h1.85V68.13H503.8c0-5.35-1-6.11-7.39-6.11h-3.5v8.47c0,6.37.83,7.46,6.11,7.46h5.74c5.86,0,6.56-1.47,7.39-4.85l.31-1.27h1.85l-.51,9H478.89Z"/><path class="cls-1" d="M522.91,81.89h-1.85v-14h1.85C524.18,74.7,529.47,79,534.7,79c3.69,0,6.37-2.1,6.37-6.31,0-2.29-1.72-4.9-4.72-6.43l-6.11-3.19c-5.35-2.74-8.6-5.73-8.6-12,0-5.22,4.9-9.55,11.08-9.55a11.89,11.89,0,0,1,7.77,2.61,5.46,5.46,0,0,0,1.85-2.93h1.78v14h-1.84c-.45-5.09-2.49-10.89-9.18-10.89a5,5,0,0,0-5.16,5.09c0,1.92,1.66,4.78,5.1,6.5L539.16,59c4.52,2.36,8.21,6.25,8.21,11.28,0,6.94-6.11,11.59-12.67,11.59-4.85,0-7.9-2.54-9.94-3A5.37,5.37,0,0,0,522.91,81.89Z"/><path class="cls-1" d="M590.63,51.57h-1.85l-.32-1.27c-.83-3.38-1.53-4.84-7.39-4.84H574.7V71.51c0,6.37.83,7.45,6.12,7.45v1.85H560.69V79c5.28,0,6-1.08,6-7.45V45.46h-6.37c-5.8,0-6.5,1.46-7.33,4.84l-.32,1.27h-1.91l.57-9h38.74Z"/><path class="cls-2" d="M346.14,20.18c-.47-1.93-.95-3.87-1.54-5.77A61.52,61.52,0,0,0,338.37.33a.53.53,0,0,0-.7-.3,55.94,55.94,0,0,0-10.06,3.56,68.2,68.2,0,0,0-18.7,12.28c-1.37,1.29-2.74,2.58-4,4s-2.52,3-3.73,4.48c-.78,1-1.48,2-2.22,3.06h-.11a48.65,48.65,0,0,0-7.48-3.17c-1.92-.58-3.82-1.22-5.75-1.72a57,57,0,0,0-12.19-1.75c-1.76-.06-3.53,0-5.29.07-.24,0-.49,0-.56.36-.28,1.43-.66,2.85-.87,4.3a63.65,63.65,0,0,0-.44,13.66,57.31,57.31,0,0,0,3.22,15.33A56.54,56.54,0,0,0,272,60.22,49,49,0,0,0,282,74a35.82,35.82,0,0,0,13,8.18,30.7,30.7,0,0,0,6.64,1.56c.23,0,.41,0,.42.36,0,1.2,0,2.4.06,3.59,0,1.38,0,13,0,14.34H308V84l.5,0a39.34,39.34,0,0,0,6.59-.74A35.77,35.77,0,0,0,331.9,74.8a41.66,41.66,0,0,0,9.32-12.14A58.31,58.31,0,0,0,347.7,40,63.08,63.08,0,0,0,346.14,20.18ZM296.26,76.23a29.74,29.74,0,0,1-9.4-5.94,42.65,42.65,0,0,1-8.09-10.1,40.64,40.64,0,0,1-3.28-6.77,55.37,55.37,0,0,1-2.82-11.36,61.31,61.31,0,0,1-.37-12.41c.07-1,.19-1.92.28-2.9,4.54-.66,18.71,2.94,23.3,5.9-.51,1.09-1.06,2.18-1.55,3.28a49.83,49.83,0,0,0-4.07,14.5,36.87,36.87,0,0,0,6.29,25.47l.36.53Zm3.85-20.8q3.94,4.51,7.9,9a.63.63,0,0,1,.12.79c-1.35,3.27-2.69,6.56-4,9.84-.06.16-.13.33-.26.62-.85-1.1-1.67-2.08-2.4-3.12A29.73,29.73,0,0,1,296,56.78a35.91,35.91,0,0,1,1.53-12.18A52.2,52.2,0,0,1,311.22,22,65.53,65.53,0,0,1,330.75,8.81l.56-.21c-3.06,7.49-6.08,14.86-9.14,22.33l-5.62-6.4-4.5,3.94c.42.48.81,1,1.21,1.4,2,2.29,4,4.57,6,6.84a.81.81,0,0,1,.16,1c-1,2.32-1.92,4.65-2.91,7.08l-10-11.43-4.51,4c.76.87,1.48,1.71,2.22,2.54q4,4.55,7.93,9.07c.5.57,1,1.17,1.52,1.71a.79.79,0,0,1,.13,1c-.7,1.62-1.38,3.24-2.07,4.87-.28.67-.55,1.35-.86,2.12l-7.81-8.92-4.52,4Zm41.66-16.94a53,53,0,0,1-2.13,12.17c-.42,1.4-.85,2.8-1.39,4.15a49.86,49.86,0,0,1-2.13,4.71c-3.16,5.93-7.32,11-13.23,14.36a30.11,30.11,0,0,1-11.28,3.8c-.69.09-1.38.15-2.17.23.24-.61.45-1.13.66-1.65q1.8-4.38,3.59-8.78a.61.61,0,0,1,.61-.45c2.05-.14,4.09-.3,6.13-.45l8.25-.62c-.15-2-.3-3.95-.45-6l-11.74.87a1.47,1.47,0,0,1,.07-.33c.89-2.22,1.79-4.44,2.67-6.67a.93.93,0,0,1,1-.67c1.52-.1,3-.26,4.57-.37s3.08-.2,4.62-.31,3-.26,4.47-.37c1.11-.08,2.22-.14,3.33-.21.27,0,.49-.07.46-.43-.14-1.78-.27-3.56-.41-5.33,0-.07,0-.13-.06-.25L322.08,47c.12-.3.21-.56.32-.81.86-2.12,1.74-4.25,2.59-6.38a.69.69,0,0,1,.7-.48c3.6-.25,7.21-.53,10.81-.8a.67.67,0,0,0,.16-.06c-.14-1.94-.29-3.9-.43-5.93l-8.5.63,9.13-22.3a3.2,3.2,0,0,1,.2.33A67.09,67.09,0,0,1,341,25.15,59.57,59.57,0,0,1,341.77,38.49Z"/></svg>